<svg width="268" height="160" viewBox="0 0 268 160" fill="none" xmlns="http://www.w3.org/2000/svg">
<rect width="268" height="160" fill="#EA3A3D"/>
<g clip-path="url(#clip0_14_1188)">
<path d="M106.865 91.272H100.875L99.0428 86.8109H89.0604L87.391 91.272H81.5L90.5 68.7409H96.9478L106.865 91.272ZM93.8059 74.1248L90.5331 82.8791H97.4064L93.8059 74.1248ZM128.623 68.7409H133.466V91.272H127.902V77.1984L121.88 84.2675H121.029L115.007 77.1984V91.2717H109.443V68.7409H114.287L121.454 77.099L128.623 68.7409ZM147.566 68.7409C155.715 68.7409 159.903 73.8609 159.903 80.0386C159.903 86.5136 155.846 91.272 146.943 91.272H137.714V68.7409H147.566ZM143.278 87.1425H146.91C152.507 87.1425 154.176 83.3094 154.176 80.0052C154.176 76.1396 152.114 72.8699 146.845 72.8699H143.278V87.1425H143.278ZM170.974 74.0833L163.958 67H189.5V92.7829L182.484 85.7005V74.0833H170.974ZM170.966 75.5026L163.742 82.7937V92.9999H173.852L181.075 85.7088H170.966V75.5026Z" fill="white"/>
</g>
<defs>
<clipPath id="clip0_14_1188">
<rect width="108" height="26" fill="white" transform="translate(81.5 67)"/>
</clipPath>
</defs>
</svg>
