<svg width="268" height="160" viewBox="0 0 268 160" fill="none" xmlns="http://www.w3.org/2000/svg">
<path fill-rule="evenodd" clip-rule="evenodd" d="M136.448 64.2303C139.081 60.9252 142.741 60.9091 142.741 60.9091C142.741 60.9091 143.286 64.0164 140.67 67.0098C137.877 70.206 134.702 69.683 134.702 69.683C134.702 69.683 134.106 67.1693 136.448 64.2303ZM135.037 71.8597C136.392 71.8597 138.906 70.0864 142.178 70.0864C147.811 70.0864 150.026 73.9035 150.026 73.9035C150.026 73.9035 145.693 76.0138 145.693 81.1343C145.693 86.9107 151.091 88.9014 151.091 88.9014C151.091 88.9014 147.317 99.0178 142.22 99.0178C139.879 99.0178 138.058 97.5152 135.592 97.5152C133.078 97.5152 130.583 99.0739 128.958 99.0739C124.303 99.074 118.423 89.4775 118.423 81.7635C118.423 74.174 123.4 70.1927 128.069 70.1927C131.104 70.1927 133.459 71.8597 135.037 71.8597Z" fill="#919EAB"/>
</svg>
