<svg width="269" height="160" viewBox="0 0 269 160" fill="none" xmlns="http://www.w3.org/2000/svg">
<rect opacity="0.1" x="0.5" width="268" height="160" fill="#006FBB"/>
<path fill-rule="evenodd" clip-rule="evenodd" d="M188.362 68.7466C188.809 68.7466 189.247 68.8577 189.674 69.0813C190.095 69.3005 190.441 69.6344 190.67 70.0423C190.908 70.4581 191.027 70.8928 191.027 71.3452C191.027 71.7923 190.91 72.2229 190.675 72.6351C190.448 73.041 190.106 73.3749 189.69 73.5973C189.285 73.8215 188.828 73.9396 188.362 73.9404C187.897 73.9395 187.44 73.8214 187.035 73.5973C186.618 73.375 186.276 73.0411 186.047 72.6351C185.817 72.2422 185.695 71.7978 185.694 71.3452C185.694 70.8928 185.814 70.4581 186.052 70.0423C186.282 69.6342 186.63 69.3002 187.052 69.0813C187.453 68.8645 187.904 68.7494 188.362 68.7466ZM188.362 69.1765C187.988 69.1765 187.624 69.2705 187.269 69.4574C186.914 69.6443 186.637 69.9122 186.437 70.2588C186.236 70.6066 186.137 70.9685 186.137 71.3452C186.137 71.7184 186.235 72.0768 186.432 72.4198C186.627 72.7629 186.902 73.0308 187.256 73.2224C187.593 73.4095 187.974 73.5085 188.362 73.5098C188.75 73.5084 189.131 73.4094 189.468 73.2224C189.815 73.0367 190.1 72.7582 190.29 72.4198C190.486 72.0768 190.583 71.7184 190.583 71.3452C190.583 70.9679 190.484 70.606 190.285 70.2588C190.086 69.9122 189.809 69.6443 189.453 69.4574C189.097 69.2705 188.734 69.1765 188.362 69.1765ZM187.193 72.78V69.9862H188.177C188.515 69.9862 188.76 70.011 188.91 70.0625C189.061 70.1139 189.18 70.2044 189.271 70.3327C189.359 70.4623 189.405 70.5983 189.405 70.7426C189.405 70.9472 189.33 71.1246 189.181 71.2754C189.03 71.4274 188.832 71.5114 188.585 71.5309C188.687 71.5717 188.769 71.6208 188.829 71.6788C188.944 71.7894 189.085 71.9739 189.253 72.2335L189.603 72.78H189.037L188.782 72.3394C188.582 71.994 188.421 71.777 188.298 71.69C188.214 71.6256 188.089 71.5936 187.927 71.5936H187.656V72.78H187.193ZM187.656 71.208H188.218C188.486 71.208 188.668 71.1678 188.767 71.0903C188.863 71.0153 188.918 70.9005 188.914 70.7804C188.914 70.7011 188.889 70.6237 188.843 70.5587C188.794 70.4925 188.726 70.4419 188.647 70.4132C188.563 70.38 188.409 70.3647 188.181 70.3647H187.656V71.208ZM136.956 68.5756H137.045V74.5466H130.852V68.5756H136.956ZM110.003 81.2024L124.327 82.0676C124.922 82.0676 125.409 82.5425 125.409 83.1221C125.409 83.7017 124.922 84.1766 124.327 84.1766H103.914V76.4042C104.541 78.8042 106.7 80.7671 110.003 81.2024ZM103.914 90.1812H124.783C127.825 90.1812 130.379 88.0433 130.942 85.234C131.438 88.0338 133.953 90.1812 136.957 90.1812H150.29C153.269 90.1812 155.768 88.0687 156.292 85.3021V90.1812H177.671C181.122 90.1812 183.945 87.4312 183.945 84.0684V83.2031C183.945 79.8415 181.122 77.0914 177.671 77.0914L176.498 77.0412C169.846 76.7561 163.215 76.4296 156.572 76.0955C157.089 78.6344 159.289 80.7482 162.733 81.2024L177.214 82.0676C177.811 82.0692 178.295 82.5402 178.298 83.1221C178.295 83.704 177.811 84.175 177.214 84.1766H156.394V76.0866L150.202 75.7755V82.6951C150.199 83.6664 149.391 84.4531 148.394 84.4557H138.853C137.856 84.4535 137.048 83.6665 137.045 82.6951V75.1143L130.852 74.8032V81.6625C130.144 79.0679 127.685 77.1973 124.783 77.1973L97.5076 75.4603V90.1818H103.914V90.1812ZM129.868 74.5495V68.5455H110.003C107.071 68.5455 104.592 70.5309 103.914 73.1904V68.575H92.0566L88.016 74.5466H103.731L129.868 74.5495ZM94.892 75.3125L85.0981 90.1812H77.4364L87.7689 74.9121L94.892 75.3125ZM183.944 74.5495V68.5455H162.733C159.32 68.5455 156.522 71.2358 156.46 74.5466L183.944 74.5495ZM150.201 74.5466V68.5756H156.393V74.5466H150.201Z" fill="#161D25"/>
</svg>
