<svg width="269" height="160" viewBox="0 0 269 160" fill="none" xmlns="http://www.w3.org/2000/svg">
<rect opacity="0.1" x="0.5" width="268" height="160" fill="#F49342"/>
<path fill-rule="evenodd" clip-rule="evenodd" d="M97.6486 82.6587C98.0265 82.9311 98.4451 83.1422 98.8888 83.2841C99.767 83.5613 100.709 83.5611 101.587 83.2836C102.033 83.1423 102.454 82.9314 102.835 82.6587C103.218 82.3826 103.556 82.0472 103.834 81.6651C104.378 80.9125 104.671 80.0069 104.67 79.0779C104.67 78.6216 104.601 78.1632 104.46 77.7222C104.174 76.8193 103.605 76.0324 102.837 75.4779C102.457 75.2042 102.036 74.9927 101.589 74.8512C100.71 74.5725 99.7658 74.5724 98.8862 74.8508C97.9865 75.1389 97.2034 75.709 96.6528 76.4767C96.38 76.857 96.1691 77.2781 96.0279 77.7243C95.8885 78.1654 95.8196 78.6229 95.8196 79.0779C95.8196 79.5328 95.888 79.9856 96.0275 80.4227C96.3142 81.3226 96.8825 82.1064 97.6486 82.6587ZM107.237 57.4016H93.235L100.251 73.2963L107.237 57.4016Z" fill="#F94A24"/>
<path fill-rule="evenodd" clip-rule="evenodd" d="M111.68 95.7126C111.68 96.144 111.595 96.5711 111.43 96.9699C111.096 97.7742 110.457 98.4133 109.653 98.7474C109.254 98.912 108.827 98.9968 108.395 98.9971H107.73C107.3 98.9971 106.87 98.9117 106.472 98.7474C105.668 98.4135 105.029 97.7743 104.695 96.9699C104.53 96.5711 104.445 96.144 104.445 95.7126L104.439 88.2625L96.8616 88.252V93.8767C96.8616 95.0206 97.0899 96.165 97.5266 97.2217C97.9664 98.2821 98.6104 99.2458 99.4218 100.058C100.234 100.869 101.197 101.513 102.257 101.953C103.318 102.391 104.455 102.617 105.603 102.618H110.288C111.432 102.618 112.576 102.39 113.633 101.953C114.693 101.513 115.656 100.869 116.468 100.058C117.28 99.2458 117.924 98.2822 118.364 97.2217C118.802 96.1609 119.028 95.0244 119.029 93.8767V57.4351L111.677 57.4456L111.68 95.7126ZM167.688 88.2625L167.682 94.8772C167.682 95.3069 167.596 95.7375 167.432 96.1345C167.267 96.5328 167.025 96.8948 166.72 97.2C166.415 97.5051 166.053 97.7471 165.654 97.912C165.256 98.0767 164.829 98.1617 164.397 98.1622H163.732C163.3 98.1617 162.873 98.0767 162.475 97.912C162.076 97.7471 161.714 97.5051 161.409 97.2C161.105 96.8962 160.861 96.5315 160.697 96.1345C160.532 95.7375 160.446 95.3073 160.446 94.8772L160.45 57.4456L153.099 57.4351L153.101 101.68H174.759L174.765 88.252L167.688 88.2625ZM146.972 81.6337C146.609 80.7743 146.082 79.9941 145.419 79.3372C144.8 78.7235 144.057 78.2492 143.24 77.9461C143.92 77.6199 144.544 77.1884 145.09 76.6676C145.645 76.1398 146.136 75.5145 146.466 74.8094C146.798 74.0981 146.97 73.3229 146.97 72.5381L146.974 64.4852C146.974 63.5544 146.788 62.6231 146.434 61.7642C146.079 60.9052 145.553 60.1191 144.896 59.4624C144.24 58.8056 143.454 58.2792 142.595 57.9236C141.737 57.568 140.806 57.3819 139.875 57.3819H125.256V101.682H140.432C141.836 101.682 143.208 101.266 144.376 100.486C145.543 99.7059 146.453 98.5973 146.99 97.3002C147.346 96.4373 147.53 95.513 147.531 94.5796C147.531 91.1844 147.522 87.7896 147.531 84.3949C147.531 83.4465 147.341 82.5077 146.972 81.6337ZM132.389 61.1985L136.236 61.1854C136.668 61.1851 137.095 61.2699 137.494 61.4351C137.892 61.6002 138.254 61.8423 138.559 62.1477C138.864 62.4518 139.107 62.8162 139.272 63.2132C139.436 63.6102 139.52 64.0403 139.522 64.4704L139.542 73.3521C139.542 73.8918 139.383 74.4193 139.083 74.868C138.783 75.3167 138.357 75.6664 137.858 75.8727C137.527 76.0087 137.172 76.0793 136.814 76.0806L132.389 76.0975V61.1985ZM139.613 95.9427C139.476 96.2737 139.275 96.5745 139.022 96.8277C138.768 97.081 138.467 97.2818 138.136 97.4187C137.805 97.5552 137.451 97.6258 137.093 97.6266L132.389 97.6436V80.078L136.515 80.0649C136.946 80.0644 137.374 80.1491 137.772 80.3142C138.171 80.4794 138.533 80.7216 138.838 81.0271C139.141 81.3309 139.386 81.6956 139.55 82.0926C139.714 82.4896 139.799 82.9197 139.8 83.3499L139.821 94.899C139.82 95.2572 139.75 95.6117 139.613 95.9427Z" fill="#F94A24"/>
</svg>
