<svg width="40" height="34" viewBox="0 0 40 34" fill="none" xmlns="http://www.w3.org/2000/svg">
<path d="M20.512 28.523C20.4411 28.2929 20.3316 28.0764 20.1882 27.8829C19.9887 27.6113 19.7282 27.3904 19.4278 27.2377C19.1273 27.0851 18.7953 27.005 18.4583 27.004C18.3894 27.004 18.3206 27.004 18.2517 27.0143C18.079 27.0322 17.909 27.0701 17.7449 27.1271C17.2663 27.2962 16.8628 27.629 16.6057 28.0667C16.3486 28.5044 16.2544 29.0189 16.3397 29.5193C16.4251 30.0197 16.6844 30.4738 17.0721 30.8016C17.4597 31.1294 17.9507 31.3096 18.4583 31.3106C18.5257 31.3106 18.5945 31.3077 18.6648 31.3018C19.2071 31.2497 19.7094 30.9941 20.0707 30.5864C20.4319 30.1786 20.6252 29.6491 20.6116 29.1046C20.6116 29.0533 20.6116 29.002 20.6116 28.9493C20.5971 28.8003 20.5677 28.653 20.5237 28.5099" fill="#1D2227"/>
<path d="M31.9537 26.3377C31.5898 26.0405 31.1386 25.8707 30.6691 25.8543H30.5958C30.5268 25.8541 30.4579 25.8576 30.3893 25.8646C30.0473 25.8972 29.7181 26.0113 29.4294 26.1973C29.1406 26.3834 28.9007 26.636 28.7296 26.9339C28.5981 27.1597 28.5096 27.4081 28.4689 27.6663C28.4397 27.8454 28.4333 28.0275 28.4498 28.2083C28.4498 28.2317 28.4572 28.2537 28.4601 28.2771C28.526 28.7961 28.7787 29.2734 29.171 29.6196C29.5633 29.9657 30.0682 30.1571 30.5914 30.158C30.6604 30.1582 30.7293 30.1548 30.798 30.1477C31.2225 30.107 31.6253 29.941 31.9554 29.6709C32.2854 29.4008 32.5277 29.0387 32.6516 28.6306C32.7754 28.2225 32.7752 27.7868 32.6509 27.3788C32.5267 26.9708 32.284 26.609 31.9537 26.3392" fill="#1D2227"/>
<path d="M12.5843 15.3031L12.2093 11.3715C12.121 10.4586 11.6963 9.61109 11.0179 8.99383C10.3394 8.37657 9.45571 8.03365 8.53849 8.03174C8.42277 8.03174 8.30412 8.03174 8.18547 8.04785L4.6699 8.38329C4.23721 8.42731 3.83783 8.63543 3.55387 8.96486C3.2699 9.29429 3.12295 9.71999 3.14321 10.1544C3.16346 10.5889 3.3494 10.9991 3.66279 11.3006C3.97617 11.6022 4.39319 11.7723 4.8281 11.7758C4.8823 11.7758 4.9365 11.7758 4.99216 11.7758L8.50773 11.4404H8.53556C8.60822 11.44 8.67842 11.4666 8.73256 11.515C8.7867 11.5635 8.8209 11.6303 8.82853 11.7026L9.20352 15.6356C9.27052 16.3496 9.39295 17.0573 9.56973 17.7523C9.77974 17.5377 10.0401 17.3791 10.327 17.2909L12.7748 16.535C12.6871 16.1285 12.6235 15.7171 12.5843 15.3031Z" fill="#1D2227"/>
<path d="M36.7965 12.9975L36.6031 10.9585C36.5627 10.5379 36.3673 10.1475 36.0548 9.86318C35.7423 9.57886 35.3352 9.42102 34.9127 9.42041C34.8585 9.42041 34.8043 9.42041 34.7487 9.42041C34.5263 9.44152 34.3103 9.50626 34.113 9.61091C33.9158 9.71556 33.741 9.85808 33.5989 10.0303C33.4567 10.2026 33.3499 10.4011 33.2845 10.6147C33.2191 10.8282 33.1965 11.0526 33.2179 11.2749L33.4186 13.3198C33.4464 13.6127 33.4582 13.9057 33.4611 14.1884C33.4911 16.8116 32.5349 19.3504 30.7818 21.302C29.0288 23.2536 26.6068 24.4757 23.9954 24.7263C23.6595 24.7566 23.3265 24.7722 22.9964 24.7732C21.7086 24.7737 20.4319 24.5342 19.2318 24.0672C18.1181 23.6327 17.0863 23.0121 16.1806 22.2317L15.8876 23.0579C15.7667 23.4046 15.5423 23.7059 15.2449 23.9211C14.9474 24.1364 14.5911 24.2553 14.224 24.2619C13.8569 24.2684 13.4966 24.1623 13.1916 23.9577C12.8867 23.7532 12.6518 23.4601 12.5185 23.118L11.9077 21.5506L10.8735 21.0277C12.1755 23.365 14.1219 25.2788 16.4809 26.5412C16.9648 26.1754 17.541 25.9513 18.1449 25.8938C18.2489 25.8835 18.3544 25.8791 18.4584 25.8791C19.1441 25.877 19.813 26.0906 20.3706 26.4896C20.9282 26.8887 21.3461 27.453 21.5653 28.1027C22.0378 28.152 22.5125 28.1769 22.9876 28.1775C23.4261 28.1775 23.868 28.1565 24.3133 28.1145C25.3463 28.0158 26.3649 27.8011 27.3498 27.4743C27.4673 26.7585 27.8184 26.1017 28.3483 25.6065C28.8783 25.1112 29.5574 24.8053 30.2795 24.7366C30.3835 24.7278 30.489 24.7219 30.5944 24.7219C31.0262 24.7224 31.4537 24.8075 31.8527 24.9724C33.5896 23.5309 34.948 21.6868 35.8096 19.6005C36.6713 17.5142 37.01 15.249 36.7965 13.0019" fill="#1D2227"/>
<path d="M32.2468 13.0502C31.5998 12.6218 30.8845 12.3067 30.1316 12.1186C31.9319 10.9936 32.7551 9.30615 32.572 7.38577C32.279 4.25545 29.3977 2.23399 23.6981 2.77744L16.374 3.47616C15.8854 3.52209 15.4107 3.66384 14.9769 3.8933C14.5432 4.12276 14.1589 4.43544 13.846 4.81347C13.5331 5.19151 13.2978 5.62749 13.1535 6.0965C13.0092 6.56552 12.9587 7.05837 13.0049 7.5469L13.79 15.8144C13.8105 15.9433 13.834 16.0707 13.8603 16.1981L15.4087 15.7206C15.7701 15.6084 16.1577 15.6135 16.5161 15.735C16.8745 15.8566 17.1852 16.0884 17.4037 16.3974C17.5706 16.6302 17.6787 16.8999 17.7188 17.1836C17.7588 17.4672 17.7296 17.7563 17.6337 18.0262L16.5732 21.0701L16.7373 21.2254C18.448 22.7776 20.6748 23.638 22.9847 23.6394C23.2777 23.6394 23.5809 23.6263 23.8768 23.597C26.3382 23.3592 28.6048 22.155 30.1796 20.2485C31.7545 18.3419 32.5089 15.8887 32.2775 13.4267L32.2468 13.0502ZM19.9672 8.0508L23.2162 7.74173C24.7821 7.59524 25.5423 8.05666 25.6375 9.06007C25.7327 10.0635 25.075 10.6714 23.5091 10.8179L20.2602 11.1269L19.9672 8.0508ZM25.2039 18.5799L21.0087 18.9798L20.6996 15.7294L24.8934 15.331C26.43 15.1845 27.2503 15.6723 27.3528 16.7357C27.4554 17.7992 26.7391 18.4335 25.2039 18.5799Z" fill="#EA3A3D"/>
<path d="M15.9474 16.6639C15.8688 16.664 15.7908 16.6763 15.716 16.7005L10.6287 18.2708C10.4824 18.3164 10.353 18.4045 10.2571 18.524C10.1612 18.6435 10.103 18.7889 10.0901 18.9416C10.0772 19.0942 10.1102 19.2473 10.1847 19.3812C10.2592 19.515 10.372 19.6237 10.5085 19.6931L12.4582 20.6819C12.6278 20.7672 12.7598 20.9123 12.8288 21.0891L13.4733 22.7487C13.5305 22.8956 13.6313 23.0214 13.7622 23.1092C13.8932 23.197 14.0478 23.2425 14.2054 23.2397C14.363 23.2368 14.5159 23.1857 14.6435 23.0932C14.7712 23.0007 14.8673 22.8712 14.9191 22.7224L16.6696 17.6907C16.7098 17.575 16.7219 17.4513 16.7049 17.3299C16.6878 17.2085 16.6421 17.093 16.5715 16.9928C16.501 16.8926 16.4076 16.8106 16.299 16.7537C16.1905 16.6967 16.07 16.6665 15.9474 16.6653" fill="#EA3A3D"/>
</svg>
