<svg width="269" height="160" viewBox="0 0 269 160" fill="none" xmlns="http://www.w3.org/2000/svg">
<rect x="0.75" width="268" height="160" fill="#006FBB"/>
<rect x="61.65" y="10" width="147" height="140" rx="8" fill="#006FBB"/>
<path fill-rule="evenodd" clip-rule="evenodd" d="M140.959 79.3051C140.959 79.3051 139.772 78.6058 139.038 78.3352C139.038 78.3352 136.765 77.332 136.314 76.8547C136.314 76.8547 135.428 76.0597 135.947 75.1363C135.947 75.1363 136.164 74.532 137.1 74.532C137.1 74.532 138.319 74.5959 138.319 75.5497V76.8953H142.686L142.678 74.9136C142.678 74.9136 143.014 71.6682 137.534 71.5253C137.534 71.5253 133.224 71.2554 131.988 73.4664C131.988 73.4664 131.502 73.9597 131.502 75.6774V76.9186C131.502 76.9186 131.453 78.3505 132.221 79.2732C132.221 79.2732 132.655 79.8781 133.724 80.5455C133.724 80.5455 135.896 81.659 137.199 82.2966C137.199 82.2966 138.514 83.0118 138.341 84.1499C138.341 84.1499 138.234 85.3186 136.964 85.2707C136.964 85.2707 135.802 85.2213 135.802 84.0752V82.7304H131.148V84.6838C131.148 84.6838 131.018 88.4196 136.998 88.4196C136.998 88.4196 142.712 88.5298 142.978 84.5859V82.9951C142.978 82.9951 143.18 80.5781 140.959 79.3051ZM118.6 71.9903L117.138 80.7181H116.796L115.399 72.0686H108.104L107.738 87.8741H112.057L112.109 75.9654H112.449L114.738 87.8719H119.282L121.544 75.9697H121.845L121.949 87.8741H126.291L125.824 71.9903H118.6ZM92.8879 72.0563L90.0142 87.856H94.6641L96.3664 75.6056H96.7488L98.4503 87.856H103.099L100.226 72.0563H92.8879ZM190.458 79.0875V81.4181H191.651V83.92C191.651 85.143 190.553 85.1655 190.553 85.1655C189.219 85.1655 189.269 84.0034 189.269 84.0034V75.3495C189.269 74.458 190.453 74.4102 190.453 74.4102C191.59 74.4102 191.597 75.4736 191.597 75.4736V76.7894H195.975C196.119 74.2208 195.581 73.5992 195.581 73.5992C194.495 71.2765 190.386 71.4034 190.386 71.4034C184.073 71.4034 184.774 76.0169 184.774 76.0169V84.3843C184.909 88.7112 191.13 88.2716 191.236 88.268C194.003 87.9764 194.838 87.1386 194.838 87.1386C195.607 86.5945 195.805 85.8408 195.805 85.8408C196.026 85.402 196.08 84.0034 196.08 84.0034V79.0875H190.458ZM175.946 81.659H175.756L171.313 71.9946H165.997V87.8755H170.323L170.064 78.2126H170.258L174.861 87.8755H180.015V71.9932H175.634L175.946 81.659ZM155.437 83.9186C155.437 83.9186 155.499 85.2221 154.23 85.2221C154.23 85.2221 152.896 85.2903 152.896 83.9512L152.882 72.004H148.137V83.8562C148.137 83.8562 147.65 88.342 154.297 88.342C154.297 88.342 160.074 88.4073 160.074 84.0622V72.0048H155.437V83.9186ZM83.8417 79.3051C83.8417 79.3051 82.6558 78.6058 81.9208 78.336C81.9208 78.336 79.6495 77.3335 79.1986 76.8554C79.1986 76.8554 78.3128 76.059 78.8323 75.1377C78.8323 75.1377 79.0486 74.5335 79.9839 74.5335C79.9839 74.5335 81.2033 74.5966 81.2033 75.5505V76.8961H85.5722L85.5638 74.9136C85.5638 74.9136 85.8974 71.6682 80.4196 71.526C80.4196 71.526 80.0068 71.5006 79.4012 71.5296C79.4012 71.5296 76.0827 71.6994 74.896 73.4331C74.8892 73.4461 74.8793 73.4555 74.8724 73.4672C74.8724 73.4672 74.388 73.9597 74.388 75.6781V76.9193C74.388 76.9193 74.3377 78.3512 75.1062 79.2739C75.1062 79.2739 75.5404 79.8789 76.6098 80.5462C76.6098 80.5462 78.7805 81.6597 80.0837 82.2973C80.0837 82.2973 81.4006 83.0111 81.2262 84.1507C81.2262 84.1507 81.1188 85.3193 79.8491 85.2714C79.8491 85.2714 78.6876 85.2221 78.6876 84.076V82.7304H74.0331V84.6853C74.0331 84.6853 73.9028 88.421 79.8826 88.421C79.8826 88.421 85.595 88.5313 85.8639 84.5874V82.998C85.8639 82.9966 86.0635 80.5781 83.8417 79.3051Z" fill="white"/>
</svg>
