<svg width="269" height="160" viewBox="0 0 269 160" fill="none" xmlns="http://www.w3.org/2000/svg">
<rect opacity="0.1" x="0.25" width="268" height="160" fill="#F49342"/>
<path fill-rule="evenodd" clip-rule="evenodd" d="M179.12 77.4467L182.668 73.8042C182.873 73.5368 182.975 73.3495 182.975 73.1892C182.975 72.9218 182.736 72.8147 181.984 72.8147H181.089V70.5151H190.777V72.8147H189.504C188.034 72.8147 187.761 73.0283 185.71 75.5151L180.098 81.3432V84.8997C180.098 85.8096 180.576 86.1297 181.944 86.1297H184.062V88.3485H170.493V86.1297H172.612C173.978 86.1297 174.457 85.8096 174.457 84.8997V81.3432L167.847 74.3115C166.755 73.0821 166.906 72.8147 163.865 72.8147V70.5151H176.136V72.8147H175.263C174.374 72.8147 173.997 72.975 173.997 73.2957C173.997 73.5637 174.27 73.7773 174.441 73.9908L177.785 77.4959C178.183 77.8932 178.668 77.9447 179.12 77.4467ZM96.7849 70.5145H99.745V76.9312H97.0112C96.7691 75.6486 95.9342 75.1494 95.1731 74.4765C93.7998 73.2629 90.8256 72.2524 88.3242 72.2524C85.0957 72.2524 82.371 73.2155 82.371 74.6316C82.371 78.5626 100.835 75.4344 100.835 82.8669C100.835 86.7435 96.8798 88.9091 89.7772 88.9091C87.3184 88.9091 83.5977 88.1753 81.4023 87.0542C80.7141 86.6721 80.4221 87.4158 80.2931 88.3479H77.2581V81.7171H80.0035C80.6089 83.4017 81.4431 83.7487 82.2104 84.4175C83.5417 85.5942 86.7106 86.4503 89.6166 86.4228C93.9981 86.3813 95.5047 85.4602 95.5047 84.1232C95.5047 82.7867 94.0145 82.4655 89.2132 81.744L85.1365 81.1021C80.5359 80.4333 77.1863 79.4444 77.1863 75.9154C77.1863 72.2524 81.4236 69.9528 88.1234 69.9528C90.9467 69.9528 93.3087 70.3156 95.5759 71.5479C96.2038 71.9405 96.7928 71.9873 96.7849 70.5145ZM154.555 81.2577L154.613 74.126C154.613 73.1904 154.107 72.8697 152.661 72.8697H150.961V70.6508H161.774V72.8697H160.364C158.917 72.8697 158.411 73.1909 158.411 74.126V88.4837L154.179 88.4515L140.474 75.971V85.0348C140.474 85.9442 140.98 86.2911 142.426 86.2911H144.308V88.4837H133.078V86.2911H134.939C136.385 86.2911 136.892 85.9436 136.892 85.0348V74.126C136.892 73.1904 136.385 72.8697 134.939 72.8697H133.078V70.6508H142.787L154.555 81.2577ZM118.337 69.8182C109.72 69.8182 104.326 73.4818 104.326 79.363C104.326 85.139 109.645 88.7745 118.074 88.7745C127.027 88.7745 132.235 85.1923 132.235 79.0693C132.236 73.5619 126.616 69.8182 118.337 69.8182ZM118.141 86.4491C113.372 86.4491 110.63 83.8019 110.63 79.2296C110.63 74.765 113.491 72.1178 118.38 72.1178C123.07 72.1178 125.812 74.8188 125.812 79.4175C125.812 83.909 123.03 86.4491 118.141 86.4491Z" fill="#212B36"/>
</svg>
