<svg width="269" height="160" viewBox="0 0 269 160" fill="none" xmlns="http://www.w3.org/2000/svg">
<rect opacity="0.1" x="0.75" width="268" height="160" fill="#50B83C"/>
<path fill-rule="evenodd" clip-rule="evenodd" d="M114.648 69.8211C112.228 69.8211 111.089 70.0603 109.826 70.5216L109.601 70.5995L110.97 72.9152L111.134 72.8567C112.065 72.4937 113.093 72.3705 115.016 72.3705H117.059C120.047 72.3705 121.759 73.7872 121.759 76.2816V83.9485C121.759 86.4412 120.047 87.8599 117.059 87.8599H113.729C110.666 87.8599 109.172 86.6909 109.172 84.26C109.172 81.8482 110.666 80.6795 113.729 80.6795H118.367V78.1109H113.586C109.04 78.1109 106.434 80.3626 106.434 84.2795C106.434 88.0666 109.175 90.4285 113.586 90.4285H117.182C122.201 90.4285 124.496 87.2377 124.496 84.2795V75.951C124.496 72.9931 122.201 69.8212 117.182 69.8212H114.648V69.8211ZM134.876 69.8211C129.856 69.8211 127.561 72.9931 127.561 75.9508V84.2793C127.561 87.2377 129.856 90.4284 134.876 90.4284H137.982C140.539 90.4284 142.215 90.0727 143.56 89.2413L143.723 89.1246L142.17 86.9646L142.007 87.0619C141.003 87.641 139.733 87.8598 137.634 87.8598H134.998C131.968 87.8598 130.299 86.4778 130.299 83.9484V76.2816C130.299 73.7509 131.969 72.3702 134.998 72.3702H137.634C139.73 72.3702 140.999 72.6078 142.007 73.1875L142.17 73.2847L143.723 71.1053L143.56 71.008C142.214 70.1774 140.541 69.821 137.982 69.821H134.876V69.8211ZM152.795 69.8211C147.759 69.8211 145.46 72.9931 145.46 75.9508V84.2793C145.46 87.2377 147.754 90.4284 152.775 90.4284H156.371C161.391 90.4284 163.665 87.2376 163.665 84.2793V75.9509C163.665 72.9935 161.369 69.8211 156.33 69.8211H152.795ZM174.024 69.8601C169.692 69.8601 166.893 72.2018 166.893 75.8146V90.3312H169.631V76.1456C169.631 73.6354 171.104 72.4094 174.147 72.4094C177.033 72.4094 178.621 73.661 178.621 75.9121V90.3312H181.359V75.9122C181.359 73.661 182.948 72.4094 185.834 72.4094C188.878 72.4094 190.37 73.6355 190.37 76.1455V90.3312H193.087V75.8146C193.087 72.2017 190.286 69.8601 185.956 69.8601C183.066 69.8601 181.321 70.5405 179.99 72.1757C178.661 70.5405 176.91 69.8601 174.024 69.8601ZM77.6864 69.9573V84.4739C77.6864 88.0861 80.4856 90.4284 84.8173 90.4284C87.704 90.4284 89.4542 89.7498 90.7835 88.1127C92.1132 89.7498 93.8624 90.4284 96.7498 90.4284C101.079 90.4284 103.881 88.0862 103.881 84.4739V69.9573H101.163V84.1431C101.163 86.652 99.6701 87.8599 96.6271 87.8599C93.7417 87.8599 92.1524 86.6258 92.1524 84.3766V69.9573H89.4349V84.3765C89.4349 86.625 87.8463 87.8598 84.9602 87.8598C81.9174 87.8598 80.4243 86.6519 80.4243 84.143V69.9575H77.6864V69.9573ZM152.897 72.3703H156.227C159.215 72.3703 160.927 73.7871 160.927 76.2816V83.9485C160.927 86.4412 159.215 87.8599 156.227 87.8599H152.897C149.865 87.8599 148.198 86.4779 148.198 83.9485V76.2817C148.198 73.7871 149.91 72.3703 152.897 72.3703Z" fill="#161D25"/>
</svg>
