<svg width="268" height="160" viewBox="0 0 268 160" fill="none" xmlns="http://www.w3.org/2000/svg">
<rect width="268" height="160" fill="#F49342"/>
<rect x="81.8999" y="30" width="105" height="100" rx="8" fill="#F49342"/>
<path fill-rule="evenodd" clip-rule="evenodd" d="M143.673 74.7396V92.8902L143.674 92.8893C143.674 93.0493 143.536 93.1794 143.367 93.1794H137.568C137.399 93.1794 137.261 93.0476 137.261 92.8875V76.8159C137.261 74.5516 135.333 72.7169 132.956 72.7169H120.299C120.129 72.7177 119.992 72.848 119.991 73.0091V92.8884C119.991 93.0492 119.854 93.1793 119.685 93.1799H113.798C113.717 93.1803 113.639 93.15 113.581 93.0956C113.524 93.0413 113.491 92.9673 113.49 92.8901V67.5624C113.49 67.4022 113.628 67.272 113.798 67.272H135.834C140.164 67.272 143.673 70.6155 143.673 74.7396ZM131.787 92.8889V92.8884V77.6541C131.787 77.4943 131.649 77.3625 131.481 77.3625H125.595C125.427 77.3625 125.288 77.4947 125.288 77.655V92.8884C125.288 92.966 125.321 93.0404 125.378 93.0951C125.436 93.1499 125.514 93.1805 125.596 93.1803H131.481C131.649 93.1803 131.787 93.0485 131.787 92.8889ZM155.012 93.1801C155.182 93.1801 155.319 93.0498 155.319 92.8884V67.565V67.5648C155.319 67.4043 155.181 67.2722 155.012 67.2722H149.128C148.958 67.2722 148.819 67.403 148.819 67.565V92.8884C148.82 93.0501 148.958 93.1806 149.128 93.1801H155.012Z" fill="white"/>
</svg>
